<svg xmlns="http://www.w3.org/2000/svg" width="906.985512" height="881.232416" viewBox="0 0 239.97325 233.15941"><g fill="#222" color="#000" font-family="sans-serif" font-weight="400" white-space="normal"><path style="line-height:normal;font-variant-ligatures:normal;font-variant-position:normal;font-variant-caps:normal;font-variant-numeric:normal;font-variant-alternates:normal;font-feature-settings:normal;text-indent:0;text-align:start;text-decoration-line:none;text-decoration-style:solid;text-decoration-color:#000;text-transform:none;text-orientation:mixed;shape-padding:0;isolation:auto;mix-blend-mode:normal" d="M15.160832 137.997778L.00362 164.315035v14.36553L19.304233 145.1715l62.531598.064595 31.329868 54.265422-19.384857 33.657894h8.271325l19.385888-33.661514-35.46295-61.425705zM-.000005 219.97779v13.18162h7.610898zM133.69591 69.562268l-35.3418 61.36328 1.0332 1.79102 34.42969 59.63476 70.81445.0742 35.3418-61.36328-35.46289-61.42578zm4.14062 7.17188l62.53125.0664 31.33008 54.26563-31.20899 54.18554-62.53125-.0644-31.33007-54.26562zM14.512285 0L.004652 25.188643V39.55159L18.65312 7.173721l62.531068.06408 31.329868 54.265938-31.208953 54.187388-62.531069-.066145L.004652 83.114824v14.337625L14.6332 122.788888l70.812738.073895 35.34357-61.36318L85.325023.073899z" overflow="visible"/></g></svg>